<svg width="893" height="152" xmlns="http://www.w3.org/2000/svg"><g fill="#FFF" fill-rule="evenodd"><path d="M59.23 112.685H33.04V149H.91V53.42h31.995v32.4h26.19v-32.4H91.36V149H59.23v-36.315zM99.47 53.42h32.4V149h-32.4V53.42zm72.1 57.51h-.27V149h-31.32V53.42h31.185v35.235h.27L196.95 53.42h37.8l-35.91 43.74L236.505 149h-39.42l-25.515-38.07zm61.705-57.51h65.745v26.73h-35.505v8.235h33.345v24.975h-33.345v8.91h37.8V149h-68.04V53.42zM352.625 149h-32.13V80.555h-23.49V53.42h-7.713 86.823v27.135h-23.49V149zm23.635-95.58h41.175c4.68 0 9.337.472 13.973 1.417 4.635.946 8.774 2.61 12.42 4.995 3.645 2.386 6.592 5.58 8.842 9.586 2.25 4.005 3.375 9.022 3.375 15.052 0 5.85-1.44 11.002-4.32 15.457-2.88 4.456-7.02 7.898-12.42 10.328l24.3 38.745h-36.99l-18.36-34.155h-.945V149h-31.05V53.42zm30.78 40.365h6.345c1.08 0 2.272-.09 3.577-.27a11.14 11.14 0 0 0 3.646-1.147 8.177 8.177 0 0 0 2.834-2.43c.766-1.036 1.148-2.408 1.148-4.118 0-1.71-.315-3.06-.945-4.05-.63-.99-1.44-1.732-2.43-2.227a9.66 9.66 0 0 0-3.24-.946 28.412 28.412 0 0 0-3.24-.202h-7.695v15.39zm82.495-40.365h34.155L560.95 149h-34.965l-4.995-14.04h-30.375L485.89 149h-34.02l37.665-95.58zm16.605 33.345l-7.83 23.625h15.525l-7.695-23.625zm45.1 14.445c0-7.65 1.35-14.58 4.05-20.79 2.7-6.21 6.39-11.52 11.07-15.93 4.68-4.41 10.192-7.807 16.538-10.192 6.345-2.386 13.117-3.578 20.317-3.578 7.38 0 14.355 1.192 20.925 3.578 6.57 2.385 12.06 5.602 16.47 9.652L620.9 87.71a17.391 17.391 0 0 0-6.75-5.332c-2.7-1.216-5.715-1.823-9.045-1.823-2.7 0-5.22.472-7.56 1.418a17.79 17.79 0 0 0-6.142 4.117c-1.756 1.8-3.128 3.982-4.118 6.548-.99 2.565-1.485 5.422-1.485 8.572 0 3.15.517 5.962 1.553 8.438 1.035 2.475 2.43 4.612 4.185 6.412a17.79 17.79 0 0 0 6.142 4.118c2.34.945 4.815 1.417 7.425 1.417 3.69 0 6.862-.765 9.517-2.295 2.656-1.53 4.748-3.33 6.278-5.4l19.71 23.625c-4.32 4.32-9.63 7.762-15.93 10.328-6.3 2.565-13.455 3.847-21.465 3.847-7.2 0-13.972-1.215-20.317-3.645-6.346-2.43-11.858-5.872-16.538-10.327-4.68-4.456-8.37-9.765-11.07-15.93-2.7-6.166-4.05-13.028-4.05-20.588zm120.16 9.72h-.27V149h-31.32V53.42h31.185v35.235h.27L696.78 53.42h37.8l-35.91 43.74L736.335 149h-39.42L671.4 110.93zm61.705-57.51h65.745v26.73h-35.505v8.235h33.345v24.975h-33.345v8.91h37.8V149h-68.04V53.42zm71.695 0h41.175c4.68 0 9.337.472 13.972 1.417 4.636.946 8.775 2.61 12.42 4.995 3.646 2.386 6.593 5.58 8.843 9.586 2.25 4.005 3.375 9.022 3.375 15.052 0 5.85-1.44 11.002-4.32 15.457-2.88 4.456-7.02 7.898-12.42 10.328l24.3 38.745h-36.99l-18.36-34.155h-.945V149H804.8V53.42zm30.78 40.365h6.345c1.08 0 2.272-.09 3.578-.27 1.305-.18 2.52-.562 3.644-1.147a8.177 8.177 0 0 0 2.835-2.43c.766-1.036 1.148-2.408 1.148-4.118 0-1.71-.315-3.06-.945-4.05-.63-.99-1.44-1.732-2.43-2.227a9.66 9.66 0 0 0-3.24-.946 28.412 28.412 0 0 0-3.24-.202h-7.695v15.39z"/><path stroke="#FFF" d="M1 50.309l44.531-30.312 64.43 10.887L159.957 1.77l98.773 20.428 59.344-19.971 71.426 41.45L492.652 6.881l74.653 25.54 83.582-29.453 36.328 10.885 14.601-9.23 35.914 12.579L771.125 1 892.48 50.309z"/></g></svg>